<?xml version="1.0" encoding="UTF-8" standalone="no"?>
<!-- Curvas modificadas: triple de grosor y color #2e3d34 -->

<svg
   width="314.51749mm"
   height="74.514694mm"
   viewBox="0 0 314.51749 74.514694"
   version="1.1"
   id="svg1"
   sodipodi:docname="logo-rafael-diaz-sarmiento-grueso.svg"
   inkscape:version="1.4.2 (2aeb623e1d, 2025-05-12)"
   xmlns:inkscape="http://www.inkscape.org/namespaces/inkscape"
   xmlns:sodipodi="http://sodipodi.sourceforge.net/DTD/sodipodi-0.dtd"
   xmlns:xlink="http://www.w3.org/1999/xlink"
   xmlns="http://www.w3.org/2000/svg"
   xmlns:svg="http://www.w3.org/2000/svg">
  <defs
     id="defs1">
    <linearGradient
       id="swatch1"
       inkscape:swatch="solid">
      <stop
         style="stop-color:#205c3b;stop-opacity:1;"
         offset="0"
         id="stop1" />
    </linearGradient>
    <linearGradient
       inkscape:collect="always"
       xlink:href="#swatch1"
       id="linearGradient1"
       x1="52.095315"
       y1="162.24625"
       x2="1240.8229"
       y2="162.24625"
       gradientUnits="userSpaceOnUse" />
  </defs>
  <sodipodi:namedview
     id="namedview1"
     pagecolor="#ffffff"
     bordercolor="#000000"
     borderopacity="0.25"
     inkscape:showpageshadow="2"
     inkscape:pageopacity="0.0"
     inkscape:pagecheckerboard="0"
     inkscape:deskcolor="#d1d1d1"
     inkscape:document-units="mm"
     inkscape:zoom="0.98508699"
     inkscape:cx="594.36375"
     inkscape:cy="140.59672"
     inkscape:window-width="1920"
     inkscape:window-height="1043"
     inkscape:window-x="0"
     inkscape:window-y="0"
     inkscape:window-maximized="1"
     inkscape:current-layer="g7"
     inkscape:lockguides="false" />
  <g
     id="layer1"
     transform="translate(94.985418,-74.6125)">
    <g
       id="g6">
      <g
         id="g7">
        <path
           style="fill:#205c3b;stroke:url(#linearGradient1);stroke-width:9.44881902;stroke-dasharray:none"
           d="m 102,300.58098 c 0,-2.01946 0.70197,-2.58724 4.25,-3.43752 10.77616,-2.58249 14.02673,-3.54405 27.19573,-8.0449 7.72985,-2.64188 16.52927,-5.37875 19.55427,-6.08194 3.025,-0.7032 5.95,-1.59847 6.5,-1.98951 0.55,-0.39103 4.375,-1.71951 8.5,-2.95216 4.125,-1.23265 9.975,-3.04856 13,-4.03534 11.1795,-3.64688 19.6692,-6.0821 26,-7.45795 3.575,-0.77695 9.875,-2.29905 14,-3.38246 4.125,-1.0834 10.648,-2.73617 14.49556,-3.67282 3.84756,-0.93665 7.22256,-2.00077 7.5,-2.36469 0.27744,-0.36393 1.40444,-0.80791 2.50444,-0.98662 1.1,-0.17872 7.175,-1.60839 13.5,-3.17704 6.325,-1.56866 13.975,-3.32886 17,-3.91156 3.025,-0.5827 10.675,-2.20278 17,-3.60016 6.325,-1.39739 14.65,-3.19965 18.5,-4.00502 3.85,-0.80538 9.475,-2.16788 12.5,-3.02778 3.025,-0.8599 7.525,-1.93926 10,-2.39857 2.475,-0.45931 10.125,-2.26847 17,-4.02035 39.38128,-10.03512 60.40407,-14.91934 64,-14.86911 0.825,0.0115 5.1,-0.87209 9.5,-1.96358 13.24565,-3.28582 47.67873,-8.89784 66,-10.75691 3.3,-0.33485 6.7875,-0.82728 7.75,-1.09429 1.10465,-0.30645 1.75,0.0677 1.75,1.01452 0,1.90496 -0.88797,2.13352 -16,4.11832 -6.875,0.90296 -19.86881,2.73855 -28.87514,4.0791 -9.00633,1.34055 -17.57883,2.43736 -19.05,2.43736 -1.47117,0 -3.2135,0.53864 -3.87183,1.19697 -0.65834,0.65834 -3.56084,1.53317 -6.45,1.94407 -5.73322,0.81538 -37.9235,7.83439 -49.75303,10.84853 -1.925,0.49048 -8,1.84907 -13.5,3.01907 -5.5,1.17001 -12.925,2.94682 -16.5,3.94848 -8.58184,2.40448 -39.68382,9.82511 -43.5,10.37868 -8.75691,1.27025 -34.13625,7.34622 -45,10.77325 -3.3,1.04101 -10.95,3.03722 -17,4.43602 -28.9745,6.6991 -38.0343,9.23551 -74,20.7173 -12.1,3.86284 -24.025,7.6012 -26.5,8.30748 -2.475,0.70627 -6.975,2.28084 -10,3.49902 -8.96561,3.61052 -9.2702,3.72043 -15,5.41308 -3.025,0.89361 -6.28139,2.05075 -7.23643,2.5714 C 104.49374,303.83596 102,303.19891 102,300.58098 Z m 471.05085,-23.24346 c -4.31326,-5.48343 -3.72535,-8.97317 3.14735,-18.68213 C 579.28642,254.29271 586.75689,246 587.59879,246 c 0.30667,0 2.20991,-1.73222 4.2294,-3.84937 3.49265,-3.66156 17.48344,-14.9504 27.17181,-21.92431 2.475,-1.78156 6.58113,-4.7653 9.12473,-6.63054 2.5436,-1.86523 5.6936,-3.95469 7,-4.64326 1.3064,-0.68856 2.60027,-1.52206 2.87527,-1.85222 0.275,-0.33017 2.525,-1.68976 5,-3.02132 2.475,-1.33155 6.075,-3.51123 8,-4.84371 l 3.5,-2.4227 -14.5,0.60678 c -28.06196,1.17429 -84.98751,4.27605 -104,5.66674 -7.975,0.58334 -18.325,1.2983 -23,1.5888 -4.675,0.2905 -9.33957,0.97619 -10.3657,1.52375 -1.41303,0.75402 -1.75883,0.67496 -1.42524,-0.32583 0.42186,-1.26558 2.47118,-1.95843 11.29094,-3.81736 2.2,-0.4637 9.4,-1.13948 16,-1.50174 6.6,-0.36227 12.9,-0.85351 14,-1.09164 1.1,-0.23814 13.925,-1.11147 28.5,-1.94074 65.68663,-3.73734 85.09492,-5.06236 94.83242,-6.47429 4.03283,-0.58476 7.74533,-0.808 8.25,-0.4961 1.72124,1.06378 1.00228,4.44906 -0.94488,4.44906 -2.6788,0 -15.25706,5.34467 -25.09871,10.66477 -8.96131,4.84422 -27.9872,17.2836 -30.91857,20.21497 -0.9591,0.9591 -5.54102,4.62312 -10.18204,8.14226 C 590.37547,246.58103 574,264.75278 574,270.57334 c 0,3.3485 2.44349,4.88349 5.7491,3.61155 7.25255,-2.79065 40.24999,-6.76584 63.7509,-7.68005 13.30475,-0.51757 18.89472,-0.95388 39,-3.04405 9.68859,-1.00724 30.06429,-3.57112 35.5,-4.46698 5.70134,-0.93964 8.05792,-1.25757 21.5,-2.90059 7.55549,-0.92351 11.74427,-1.19387 41,-2.64626 11.28858,-0.56042 28.66202,-1.98996 54,-4.44331 10.72298,-1.03825 28.25083,-3.33191 49.5,-6.47749 5.775,-0.85489 14.1,-1.9953 18.5,-2.53424 4.4,-0.53894 12.725,-1.63074 18.5,-2.42622 5.775,-0.79547 17.25,-1.93517 25.5,-2.53266 8.25,-0.59748 16.8,-1.26477 19,-1.48286 8.29044,-0.82185 18.21968,-1.63551 24.5,-2.00769 13.3662,-0.79209 21.3706,-1.92995 57,-8.10284 8.5752,-1.48568 9.6523,-1.71996 16,-3.48024 1.925,-0.53382 10.025,-2.54459 18,-4.46838 16.238,-3.91705 25.8701,-6.45479 34,-8.95792 3.025,-0.93137 9.55,-2.78682 14.5,-4.12323 4.95,-1.3364 9.9,-2.81707 11,-3.29036 2.4669,-1.06142 16.9562,-4.73415 29,-7.35088 5.1012,-1.10833 13.4185,-2.02326 19.1998,-2.11203 9.141,-0.14035 10.3521,0.0507 11.6673,1.84056 2.8809,3.92061 -1.4239,5.69657 -8.0235,3.31013 -3.995,-1.44463 -25.0724,0.97761 -35.4195,4.07044 -3.5332,1.05613 -16.7741,4.74175 -29.4241,8.19027 -12.65,3.44852 -26.825,7.32798 -31.5,8.62102 -4.675,1.29303 -10.6466,2.78205 -13.2703,3.30893 -2.6236,0.52688 -7.1603,1.65278 -10.0815,2.50199 -5.8093,1.68879 -37.1477,7.93909 -45.1482,9.00457 -2.75,0.36624 -10.175,1.48907 -16.5,2.49518 -6.325,1.00611 -18.025,2.32412 -26,2.9289 -43.96165,3.33385 -71.70169,5.81507 -73.88473,6.60865 -1.50914,0.54861 -33.04231,5.0634 -45.11527,6.45942 -4.125,0.47699 -12.9,1.54926 -19.5,2.38283 -14.14449,1.78643 -20.66946,2.47755 -29.5,3.12463 -3.575,0.26197 -14.15,1.15709 -23.5,1.98916 -9.35,0.83208 -25.325,1.9549 -35.5,2.49517 -20.54772,1.09104 -26.44354,1.70726 -52.37583,5.47422 -18.42077,2.67584 -47.18301,5.32127 -65.62417,6.03584 -17.30417,0.67052 -30.1641,1.48487 -30.93072,1.95866 -0.3969,0.2453 -5.41236,1.17396 -11.14546,2.06369 -10.36014,1.6078 -15.83793,2.92345 -19.16025,4.60189 -2.65768,1.34265 -3.44613,1.09626 -5.71272,-1.78524 z M 67.556704,249.77749 c -2.341165,-3.34248 -1.934686,-8.75697 0.979347,-13.04536 3.058913,-4.50159 3.831185,-4.68763 3.258392,-0.78494 -0.237905,1.62095 -0.06398,2.71939 0.386501,2.44098 C 72.631425,238.10976 73,237.0297 73,235.98804 c 0,-1.04167 0.392448,-2.92761 0.872107,-4.19099 0.479659,-1.26338 1.448182,-4.09705 2.152274,-6.29705 1.721007,-5.37745 6.282415,-15.17927 18.009338,-38.69955 l 9.821951,-19.69955 -4.177833,-0.49009 c -14.806466,-1.7369 -35.507505,-4.96499 -39.563396,-6.16947 -2.632538,-0.78177 -5.632809,-2.35665 -6.667269,-3.49971 -1.709857,-1.88938 -1.746207,-2.31817 -0.399862,-4.71685 1.793214,-3.19483 16.143171,-13.13591 28.45269,-19.71089 4.95,-2.64398 12.07779,-6.54124 15.839533,-8.66056 C 101.10128,121.734 104.44714,120 104.7748,120 c 1.14386,0 20.78451,-11.4408 28.05053,-16.3396 7.34459,-4.951785 9.52214,-7.564437 14.75717,-17.705867 C 149.1311,82.95454 150.65707,80.275 150.97354,80 c 1.16475,-1.012123 5.45105,-9.908747 4.99408,-10.36571 C 155.32115,68.987822 131.57667,74.078041 115,78.416717 101.50454,81.948935 96.137521,83.521482 91,85.44876 80.414935,89.419619 76,89.876194 76,87 c 0,-1.443804 0.666667,-2 2.397236,-2 1.318479,0 7.730979,-1.763946 14.25,-3.919879 11.035534,-3.649609 17.085224,-5.3558 28.352764,-7.996313 11.14953,-2.612858 22.15435,-5.085737 29.85543,-6.708776 5.45803,-1.150306 8.55365,-2.30088 8.92706,-3.317989 0.31439,-0.856374 0.82945,-1.782043 1.14457,-2.057043 0.31512,-0.275 1.38665,-2.257722 2.38118,-4.40605 1.62397,-3.508007 1.96432,-3.749959 3.33996,-2.374318 1.37565,1.375642 1.3622,1.859582 -0.13197,4.74898 -0.91504,1.769487 -1.5105,3.370452 -1.32325,3.5577 0.18725,0.187248 5.28293,-0.515426 11.32374,-1.561499 14.53804,-2.517521 16.18045,-2.494297 17.04863,0.241076 0.53137,1.674218 0.13306,2.578057 -1.65259,3.75 -2.7357,1.795474 -8.5119,6.223988 -23.57241,18.072555 -5.96219,4.690644 -14.04759,10.650967 -17.96756,13.245163 -7.09341,4.694353 -7.1664,4.789053 -15.39298,19.971553 -4.54618,8.39016 -10.59912,19.52984 -13.45098,24.75484 -10.51898,19.27222 -11.88277,21.9794 -11.34395,22.51821 0.30271,0.30271 7.35995,0.82991 15.68275,1.17155 10.80755,0.44364 15.13237,0.96609 15.13237,1.82803 0,1.4476 -8.37223,2.51173 -15.5,1.97009 -2.75,-0.20897 -7.925,-0.51673 -11.5,-0.68391 l -6.5,-0.30397 -9.552551,19 c -11.708621,23.28842 -18.261975,38.24494 -19.936292,45.5 -1.331373,5.76903 -3.388668,12.61001 -5.187612,17.25 -1.289945,3.32714 -3.173744,3.51581 -5.266841,0.52749 z m 3.859846,-7.42062 c 0.9187,-2.39409 0.202606,-2.57794 -1.212879,-0.31139 -0.67134,1.07499 -0.81495,1.95452 -0.319134,1.95452 0.495817,0 1.185223,-0.73941 1.532013,-1.64313 z M 105.7883,162.75 c 0.56825,-0.6875 2.58324,-4.175 4.47775,-7.75 1.8945,-3.575 6.50781,-12.125 10.25178,-19 13.81262,-25.36393 16.45097,-30.36454 16.16915,-30.64635 -0.15849,-0.15849 -3.6404,1.85529 -7.73757,4.47508 -4.09718,2.61979 -13.74941,8.06943 -21.44941,12.11032 -25.665083,13.46878 -34.121949,18.34602 -43.993715,25.37202 -6.326426,4.50268 -7.775483,6.96444 -4.805377,8.16371 5.612581,2.26625 22.519228,5.44165 41.799092,7.8507 1.65,0.20617 3.2824,0.44228 3.62756,0.52469 0.34515,0.0824 1.09249,-0.41267 1.66074,-1.10017 z M 155,89.272396 c 5.82303,-3.991798 18.93544,-14.534842 24.58492,-19.76752 0.5967,-0.552682 2.2842,-1.899183 3.75,-2.992225 C 184.80071,65.41961 186,64.271034 186,63.960262 c 0,-0.709813 -15.19791,1.477397 -20.86025,3.002106 -2.84397,0.765803 -4.50808,1.876212 -5.08472,3.392879 -0.47144,1.239985 -3.37668,6.726805 -6.4561,12.192934 C 150.51952,88.014309 148,92.882 148,93.36527 c 0,0.483271 1.0125,0.14568 2.25,-0.750201 1.2375,-0.895881 3.375,-2.400084 4.75,-3.342673 z M 918,236.60699 c 0,-0.21616 0.69837,-0.661 1.55194,-0.98855 0.88992,-0.34149 1.29132,-0.17385 0.94098,0.39301 C 919.90566,236.96166 918,237.4169 918,236.60699 Z m 318.2861,-66.62835 c -1.9751,-0.79178 -2.0994,-1.21584 -1.1521,-3.93305 1.1498,-3.2984 2.9227,-3.88711 4.8203,-1.60063 1.3611,1.63998 1.0569,5.76478 -0.4543,6.15976 -0.55,0.14376 -1.9962,-0.13797 -3.2139,-0.62608 z M 733.48906,166.9823 c -2.39514,-3.87543 0.48598,-16.71809 8.52096,-37.9823 1.55869,-4.125 4.01817,-12.9 5.46553,-19.5 4.23309,-19.303119 7.38373,-30.671333 9.78308,-35.299629 C 768.25677,52.985254 768.42289,52.73913 772,52.359697 c 7.29476,-0.773773 12.89075,-1.419027 21,-2.421438 12.47731,-1.542361 30.75395,-0.552275 39.7027,2.150783 10.06275,3.039548 22.42227,9.419437 26.48293,13.670281 4.0986,4.29055 8.97137,14.224701 10.90923,22.240677 0.73129,3.025 1.32263,9.325 1.31409,14 l -0.0155,8.5 -7.31747,14.87076 c -8.51816,17.31083 -11.98204,21.3299 -22.61921,26.24458 -6.61498,3.05631 -8.88328,3.52049 -24.12905,4.93777 -19.15915,1.78108 -63.69421,2.70128 -67.07769,1.386 -1.32389,-0.51465 -2.25,-1.72406 -2.25,-2.93827 0,-2.22408 0.52852,-2.51737 6.25,-3.46824 2.92788,-0.4866 3.75,-0.29807 3.75,0.85994 0,0.81574 0.7875,1.49859 1.75,1.51745 0.9625,0.0189 6.475,0.19446 12.25,0.39022 9.91349,0.33604 29.20155,-0.4763 42.48276,-1.78922 3.81448,-0.37708 6.29007,-1.14058 6.83072,-2.10666 0.64771,-1.15739 1.17141,-1.2468 2.21756,-0.37857 1.02424,0.85004 2.83204,0.83454 7.16928,-0.0615 14.32071,-2.95845 22.60756,-10.60789 30.02366,-27.71429 8.44332,-19.47583 8.04021,-17.34485 5.75369,-30.416139 -2.86373,-16.37102 -7.92162,-24.22845 -18.89611,-29.355109 -17.52134,-8.18498 -32.82813,-10.696416 -51.84364,-8.506157 l -11.61618,1.337985 -4.55586,9.09471 C 777.06015,69.40738 774.05244,75.075 772.88207,77 c -3.15128,5.183197 -14.94837,27.16164 -20.23817,37.70452 -4.56591,9.10013 -14.19488,38.99737 -15.50131,48.13043 -0.63524,4.44093 -2.30244,6.33346 -3.65353,4.14735 z M 754,105.21324 c 0,-0.77247 0.84207,-2.59897 1.87127,-4.05887 1.0292,-1.459903 2.7781,-4.45437 3.88645,-6.65437 1.10834,-2.2 4.50819,-8.651745 7.55521,-14.337212 7.0595,-13.172418 7.46378,-14.241096 4.24259,-11.214948 C 769.62784,70.758803 769,70.970415 769,69.809173 c 0,-1.515526 2.81904,-5.596853 6.25,-9.048581 C 777.64945,58.346624 777.4433,57 774.67431,57 c -6.00874,0 -15.62069,18.034028 -20.2536,38 -3.81048,16.42163 -3.72981,15.85666 -1.93605,13.55887 C 753.3181,107.49125 754,105.98572 754,105.21324 Z M 154.21679,161.4393 c -3.37293,-2.3625 -5.29632,-6.79165 -4.55624,-10.49206 1.0935,-5.46751 10.85419,-14.80973 21.13843,-20.23216 8.95768,-4.723 23.14522,-9.18495 26.16131,-8.22768 0.8703,0.27622 4.72134,-0.39544 8.55786,-1.49259 3.83652,-1.09715 8.78929,-1.99481 11.00616,-1.99481 4.25798,0 8.47569,2.21224 8.47569,4.44559 0,0.7327 0.7875,1.26969 1.75,1.1933 3.16517,-0.2512 2.5586,4.66393 -1.69646,13.74682 -2.22945,4.759 -4.05354,9.61787 -4.05354,10.79749 0,2.4665 -3.0474,9.8168 -4.07,9.8168 -0.37681,0 -1.18395,-0.60107 -1.79364,-1.3357 -1.22889,-1.48072 0.21074,-8.01697 3.33398,-15.13709 l 1.74267,-3.97278 -3.3565,3.29668 c -12.72959,12.50274 -54.2282,25.47984 -62.63972,19.58819 z m 19.13729,-3.94015 c 1.56974,-0.8187 3.26486,-1.23466 3.76693,-0.92436 1.45095,0.89673 16.75586,-4.41578 23.87899,-8.28867 11.88739,-6.46326 19.18671,-13.96965 20.63733,-21.22279 0.74942,-3.74706 -2.09254,-5.4496 -7.40134,-4.43395 -2.0548,0.39311 -4.41099,0.79984 -5.23599,0.90384 -0.825,0.104 -2.175,0.44092 -3,0.74871 -0.825,0.30779 -2.17031,0.7437 -2.98958,0.9687 -1.05405,0.28948 -1.39713,1.48219 -1.17339,4.07923 C 202.10843,132.47998 201.859,133 200.07662,133 198.52823,133 198,132.36408 198,130.5 c 0,-1.375 -0.42619,-2.5 -0.94709,-2.5 -1.72383,0 -9.80951,4.69337 -12.69479,7.36876 -1.56073,1.44718 -3.21108,2.63124 -3.66745,2.63124 -1.67114,0 -0.12848,-4.48081 1.88711,-5.48132 1.14278,-0.56726 2.93833,-1.89193 3.9901,-2.9437 1.88309,-1.88309 1.86661,-1.90092 -1.07778,-1.16676 -1.64456,0.41006 -6.71408,2.51228 -11.26562,4.6716 -8.66655,4.11155 -15.77184,9.83369 -19.30074,15.54357 -1.85379,2.99949 -1.94124,3.7158 -0.77524,6.34997 0.72284,1.63301 1.99764,3.15485 2.83288,3.38187 3.82096,1.03855 13.73379,0.52023 16.3727,-0.85608 z M 527.2,160.8 c -2.70671,-2.70671 -0.60026,-15.49253 5.2128,-31.6409 1.95831,-5.44009 11.24811,-24.59787 16.03072,-33.059185 1.98411,-3.510242 3.43021,-6.559523 3.21355,-6.776181 -0.21666,-0.216657 0.78887,-1.660103 2.2345,-3.207657 1.44563,-1.547555 3.90772,-5.244262 5.47131,-8.214906 3.98454,-7.570165 6.93657,-12.46088 8.8025,-14.583382 0.87893,-0.999784 1.88893,-2.717789 2.24444,-3.817789 1.0295,-3.18543 3.92849,-6.11711 6.74888,-6.824983 4.32259,-1.084902 8.41765,1.136231 16.35656,8.871696 6.42418,6.259551 8.23672,8.823557 12.05855,17.057936 7.13872,15.380792 13.59369,44.094111 13.68974,60.895351 0.0505,8.83367 -1.59976,16.30805 -3.78584,17.14693 -0.77961,0.29916 -4.69353,-0.0205 -8.69759,-0.71036 -4.00407,-0.68986 -8.18012,-1.37393 -9.28012,-1.52016 -1.1,-0.14622 -4.25,-0.79153 -7,-1.43401 -2.75,-0.64248 -5.675,-1.1971 -6.5,-1.2325 -1.82441,-0.0783 -5.17669,-3.71982 -4.71085,-5.11734 0.18472,-0.55416 1.52944,-1.40542 2.98827,-1.8917 2.09102,-0.69701 3.11378,-0.45431 4.8322,1.14664 2.57697,2.40081 18.61552,5.97017 23.93585,5.3269 5.83938,-0.70603 5.94505,-13.809 0.34313,-42.54785 -1.37586,-7.0584 -3.01407,-14.033404 -3.64047,-15.500004 -0.6264,-1.4666 -1.20494,-3.116546 -1.28564,-3.666546 -0.0807,-0.55 -1.11777,-3.174807 -2.30461,-5.832905 C 602.97105,81.008997 602,78.486208 602,78.060897 602,76.736962 594.8172,67.661604 591.06983,64.250782 589.10642,62.463712 586.825,61.020415 586,61.043456 583.70221,61.107628 573.94523,75.139151 559.64983,98.937658 541.18271,129.6811 535.24761,142.21938 530.39042,160.75 c -0.41338,1.57705 -1.64408,1.59634 -3.19042,0.05 z M 542.04629,122 c 1.82551,-3.575 4.29697,-7.85 5.49213,-9.5 1.19515,-1.65 3.15062,-4.8 4.34548,-7 1.19486,-2.2 2.94729,-5.17911 3.89429,-6.620248 0.94699,-1.441137 3.43325,-5.491137 5.52502,-9 4.4039,-7.387404 8.3224,-13.675205 14.38106,-23.076535 C 580.24327,59.728941 580.83052,58 578.67431,58 c -2.03854,0 -8.2371,7.934642 -14.17431,18.14426 -0.55,0.945778 -3.76527,6.362729 -7.14504,12.037668 -6.40259,10.750522 -11.07947,19.908922 -16.91146,33.116512 -5.18003,11.73112 -4.23949,12.14281 1.60279,0.70156 z M 421.6875,158.35417 c -1.42885,-1.42885 -0.60671,-13.13198 1.39497,-19.85735 1.14536,-3.84825 2.46486,-8.34682 2.93222,-9.99682 1.79771,-6.34668 6.10567,-16.76128 12.0502,-29.131663 10.6896,-22.244708 11.89884,-24.696471 15.73263,-31.8984 2.05826,-3.866535 4.18333,-8.816535 4.72239,-11 C 459.25476,53.493365 460.00044,52.5 461.5,52.5 c 1.32676,0 2.10994,0.775539 2.32662,2.30391 0.31891,2.249587 -1.39723,6.079853 -7.71236,17.213227 -5.09615,8.98435 -15.42143,29.844703 -19.54288,39.482863 -2.11671,4.95 -4.42867,10.35 -5.13769,12 C 430.39932,125.90716 426,140.66676 426,141.7299 c 0,0.14856 0.72314,0.2701 1.60699,0.2701 1.15154,0 1.39291,0.49597 0.85165,1.75 -0.41543,0.9625 -1.18594,4 -1.71224,6.75 -1.36804,7.14826 -3.09054,9.82252 -5.0589,7.85417 z m 233.40378,-2.74419 c -0.89308,-1.07609 -0.67258,-2.2053 0.97633,-5 2.00228,-3.39362 4.6307,-5.09268 3.65085,-2.35998 -0.24651,0.6875 -0.0432,2.0375 0.45185,3 1.06715,2.07488 -0.58381,5.75 -2.58305,5.75 -0.7383,0 -1.8615,-0.62551 -2.49598,-1.39002 z m -396.13713,-3.78025 c -1.04122,-3.86679 -0.86356,-10.01815 0.66467,-23.01431 l 0.55086,-4.68457 -3.83484,-0.31543 c -3.09853,-0.25486 -3.8962,-0.74743 -4.15439,-2.56542 -0.29076,-2.04725 0.0858,-2.25 4.17904,-2.25 h 4.49859 l 1.48754,-5.25 c 0.81815,-2.8875 2.27045,-8.175 3.22733,-11.75 0.95687,-3.575 2.07263,-6.95 2.47944,-7.5 0.40682,-0.55 1.20353,-2.575 1.77047,-4.5 C 274.54049,73.981553 283.86853,56.401388 289,53.857627 c 1.42904,-0.708402 7.98223,-1.415279 15.2975,-1.650106 14.27675,-0.458298 18.72493,0.533702 18.6707,4.163799 C 322.9312,58.848649 320.78774,62 319.13976,62 c -1.48156,0 -1.45389,-1.28587 0.0602,-2.8 2.62709,-2.627092 -0.76668,-3.42441 -12.85804,-3.020815 -14.19426,0.473787 -16.48454,1.449807 -21.64701,9.22505 -7.01236,10.561382 -20.56146,50.824165 -17.69859,52.593515 0.9526,0.58874 20.0965,-1.66363 30.25364,-3.55949 5.30325,-0.98986 4.85447,1.14532 -0.5,2.37889 -2.3375,0.53852 -7.85,1.88315 -12.25,2.98807 -4.4,1.10491 -10.56662,2.30552 -13.70361,2.66802 -4.39581,0.50796 -5.8431,1.09857 -6.31195,2.5758 -1.14464,3.60643 -2.09114,20.44568 -1.40245,24.95096 0.64342,4.20911 -0.0183,5.93572 -2.29345,5.98469 -0.3913,0.008 -1.21677,-1.86131 -1.83439,-4.15496 z m 37.39193,-8.04233 c -3.79753,-5.79592 -3.88987,-9.09351 -0.42425,-15.15078 6.60935,-11.55193 18.11698,-20.04969 30.68427,-22.65865 4.83795,-1.00435 5.78251,-0.93626 7.40706,0.53394 1.75818,1.59113 2.06076,1.53349 5.42666,-1.0338 3.21414,-2.45155 3.85463,-2.59879 6.51367,-1.49738 1.62196,0.67184 3.63124,2.26274 4.46507,3.53533 1.04339,1.5924 2.14981,2.14807 3.54875,1.78224 1.72388,-0.45081 2.03269,-0.056 2.03269,2.59864 0,2.81642 -1.51692,6.78262 -3.09912,8.10306 -1.4073,1.17448 -5.75722,13.9288 -6.39439,18.74888 -0.77378,5.85348 -1.9522,7.23398 -4.23038,4.9558 -1.2525,-1.2525 -1.3262,-2.12222 -0.40404,-4.76755 1.57459,-4.51688 1.41046,-5.49546 -0.62207,-3.70882 -7.24727,6.3705 -22.18383,11.30685 -35.25,11.64969 -7.45916,0.19572 -7.51173,0.17889 -9.65392,-3.0906 z m 25.25305,-2.52079 c 1.04548,-0.51634 4.90141,-2.39249 8.56874,-4.16924 11.352,-5.49982 20.45563,-17.38133 18.18984,-23.74028 -1.88616,-5.29351 -5.28729,-6.02342 -10.24257,-2.19812 -2.83488,2.18843 -4.47086,2.32227 -5.99137,0.49017 -1.51615,-1.82686 -9.63499,-0.52357 -15.85531,2.54518 -5.47607,2.70158 -14.33535,11.31953 -16.64925,16.19572 -1.88862,3.97995 -2.07297,7.89359 -0.50944,10.81507 1.03894,1.94128 1.73135,2.03937 10.84913,1.53695 5.35664,-0.29517 10.59474,-0.95912 11.64023,-1.47545 z m 48.7553,0.0256 c -3.07214,-0.57837 -5.39634,-3.53255 -6.44253,-8.18878 -0.72931,-3.24594 -0.48605,-5.17582 1.23803,-9.82157 1.18012,-3.18002 3.20417,-7.05388 4.49788,-8.60858 1.2937,-1.55469 2.35219,-3.18434 2.35219,-3.62144 0,-1.57976 9.66611,-10.7233 15.26462,-14.439377 6.22082,-4.129145 12.7439,-5.680202 15.22581,-3.620394 0.91047,0.755622 1.50957,2.930596 1.50957,5.480347 0,6.798844 -6.97191,15.419904 -16.73315,20.691244 -5.61152,3.03038 -13.65578,4.6341 -14.70763,2.93216 -1.22654,-1.98458 -2.38644,-1.14936 -3.62793,2.61238 -1.53502,4.65115 -1.4451,8.96778 0.22882,10.98472 2.96481,3.57238 22.84086,-1.55363 31.87858,-8.22146 3.45232,-2.54703 5.96131,-3.1876 5.96131,-1.52198 0,0.52221 -2.8125,2.93282 -6.25,5.3569 -9.3289,6.57863 -23.59627,11.26587 -30.39557,9.98583 z m 15.57581,-26.25661 c 5.72598,-2.92118 12.75781,-10.55923 13.53497,-14.70184 0.36507,-1.945964 0.51202,-3.689855 0.32656,-3.875312 -0.8698,-0.8698 -12.17233,4.667902 -15.52472,7.606372 -5.04696,4.42382 -10.24538,11.05219 -10.25734,13.07889 -0.008,1.40727 0.57843,1.51156 4.07913,0.725 2.24886,-0.50528 5.77749,-1.78018 7.8414,-2.83311 z m 800.10956,24.5124 c -1.4632,-1.76306 -0.4451,-5.54799 1.4924,-5.54799 2.1954,0 3.8563,3.82694 2.4147,5.56392 -1.5052,1.81375 -2.3916,1.81014 -3.9071,-0.0159 z M 892,137.66516 c 0,-2.65692 3.47208,-14.16503 5.17205,-17.14259 1.81117,-3.17235 3.80322,-11.66686 3.81608,-16.27257 0.009,-3.13658 0.41132,-4.25 1.53662,-4.25 4.19675,0 3.64167,10.46435 -1.10253,20.78492 -1.33617,2.9067 -2.88121,7.4067 -3.43343,10 -0.55222,2.59329 -1.23417,5.72758 -1.51546,6.96508 C 895.75565,140.90736 892,140.83613 892,137.66516 Z m 91.59792,-1.9621 c -2.45655,-1.80635 -1.75806,-8.26505 1.36874,-12.65623 1.19324,-1.67576 1.91686,-3.04683 1.60805,-3.04683 -0.30882,0 0.44804,-1.18811 1.6819,-2.64024 7.07285,-8.32403 11.90289,-13.13083 18.66789,-18.577958 l 7.5755,-6.099711 -9,0.67559 c -8.27513,0.621177 -9.09903,0.516901 -10.22952,-1.294685 -0.67624,-1.083651 -0.90124,-2.171299 -0.5,-2.416995 0.40124,-0.245697 6.19672,-0.771673 12.87882,-1.168837 11.6173,-0.6905 12.1974,-0.632066 13.25,1.334618 1.6436,3.071229 1.4029,3.673115 -2.1493,5.373686 -4.814,2.30464 -18.6506,13.816842 -23.35736,19.433572 -4.76103,5.6815 -8.39264,12.36797 -8.39264,15.45241 0,1.94151 0.36543,2.08403 3.75,1.46249 4.18569,-0.76865 10.9482,-2.72982 19.3527,-5.61235 6.5649,-2.25161 7.9065,-2.36608 7.8715,-0.67159 -0.023,1.09429 -2.0479,2.2093 -10.4742,5.76638 -1.1,0.46435 -3.8,1.38427 -6,2.04427 -2.2,0.66 -4.60792,1.68415 -5.35093,2.27589 -2.15316,1.71478 -10.39046,1.95533 -12.55115,0.36652 z m 151.50648,-2.71587 c -5.862,-2.10845 -7.4438,-3.23396 -13.8296,-9.84037 -3.4802,-3.60047 -4.047,-4.70398 -3.2148,-6.25898 1.4799,-2.76525 3.9456,-2.12325 5.2316,1.36216 0.3551,0.9625 1.3348,1.75 2.177,1.75 0.8423,0 1.5478,0.7875 1.5679,1.75 0.08,3.85489 14.0845,9.71418 20.3533,8.51582 6.1024,-1.16655 6.9535,-14.63191 1.6286,-25.76582 -3.7461,-7.832684 -11.093,-14.743209 -27.7524,-26.103937 -6.9946,-4.769926 -9.8447,-8.359655 -10.6536,-13.418565 -0.5831,-3.646747 -0.2525,-4.863186 2.4783,-9.11878 5.7885,-9.020642 23.277,-21.617414 39.9281,-28.759777 6.6181,-2.838746 20.8412,-6.278148 23.0558,-5.575274 1.0524,0.334043 2.6202,1.314021 3.4839,2.17773 1.4272,1.427171 1.2731,1.877161 -1.6902,4.934491 C 1176.0749,30.486149 1174.2459,32 1173.8038,32 c -1.2568,0 -0.9423,-3.455787 0.4462,-4.901821 1.0233,-1.065722 0.2525,-1.177287 -4.25,-0.615155 -13.0494,1.629203 -33.2023,10.901209 -44.5,20.473706 -5.8258,4.936222 -11.4753,12.87844 -11.4918,16.155765 -0.012,2.323121 5.4398,8.840672 10.3403,12.362289 7.5304,5.411515 18.9496,14.828099 21.7828,17.962753 1.5223,1.684355 4.4106,6.366277 6.4183,10.404273 3.3138,6.66489 3.6504,8.1038 3.6504,15.60628 0,9.26039 -1.6885,13.91426 -5.41,14.91115 -4.1827,1.12046 -10.2252,0.59191 -15.6856,-1.37205 z m -210.34058,-1.95833 c -5.3231,-4.18715 -5.37173,-14.66385 -0.094,-20.24491 C 927.70212,107.57746 938.45604,99 939.44392,99 c 0.3277,0 2.45446,-1.173305 4.72613,-2.607345 3.76116,-2.374317 4.21488,-2.456215 5.07663,-0.916348 0.88132,1.574826 1.09427,1.565026 3.09982,-0.142654 C 956.38647,91.893715 958.97135,91 964.88068,91 c 5.13919,0 6.31187,0.377452 9.01356,2.90121 2.65757,2.48254 3.10576,3.608756 3.10576,7.80422 0,5.28168 -3.19253,11.47605 -8.3591,16.21888 -2.05885,1.89 -2.6409,3.35967 -2.6409,6.66822 0,2.33414 -0.27314,4.9557 -0.60699,5.82568 -0.83023,2.16354 -3.71548,1.98794 -5.83598,-0.3552 C 957.68936,127.99927 958.1824,126 960.55902,126 961.35156,126 962,125.325 962,124.5 c 0,-1.92059 0.36662,-1.99423 -7.23781,1.45379 -7.1142,3.22573 -20.56934,7.04621 -24.81567,7.04621 -1.47224,0 -3.80445,-0.88701 -5.1827,-1.97114 z m 17.06617,-4.47207 C 950.29924,124.34515 961,119.35911 961,117.62448 c 0,-0.76915 -1.55592,-3.58681 -3.45759,-6.26147 -1.90167,-2.67465 -4.23502,-6.32551 -5.18521,-8.11301 -1.88645,-3.548782 -3.43984,-4.060281 -5.34806,-1.76101 -0.67967,0.81894 -1.61933,1.25192 -2.08815,0.96218 -2.06326,-1.27517 -13.65907,6.44984 -17.50347,11.66063 -2.75285,3.73127 -3.31233,10.85053 -1.03193,13.13093 1.72638,1.72639 7.12478,1.48662 15.4444,-0.68594 z m 30.11952,-19.79395 c 2.5439,-5.7521 1.91963,-9.480931 -1.82622,-10.908315 -3.87117,-1.475137 -10.94781,-0.474451 -13.30346,1.881204 l -2.02061,2.020605 3.50461,5.094796 c 1.92753,2.80214 4.08917,6.41544 4.80365,8.02956 l 1.29905,2.93475 2.72397,-2.15772 c 1.49819,-1.18675 3.66674,-4.28944 4.81901,-6.89488 z M 910.13382,80.211273 C 909.51022,80.003406 909,79.053697 909,78.100808 c 0,-3.715494 11.95867,-7.881082 28.82566,-10.040902 4.66349,-0.59716 5.50276,-0.429111 6.75,1.351578 0.78339,1.118441 1.42434,2.423769 1.42434,2.90073 0,1.396688 -4.34185,4.61828 -6.27305,4.654517 -1.66165,0.03118 -1.67013,-0.12382 -0.13499,-2.466731 1.53739,-2.346365 1.52781,-2.5 -0.15595,-2.5 -0.98671,0 -3.17596,0.423757 -4.86501,0.941683 -1.68905,0.517926 -5.546,1.43621 -8.571,2.040632 -3.025,0.604421 -7.57728,2.113237 -10.11618,3.352923 -2.5389,1.239686 -5.1264,2.083902 -5.75,1.876035 z"
           id="path2"
           transform="matrix(0.26458333,0,0,0.26458333,-108.76897,68.942192)" />
      </g>
    </g>
  </g>
</svg>
